<svg viewBox="-24 0 511 512" xmlns="http://www.w3.org/2000/svg"><path d="m418.960938 0h-374.152344c-24.433594 0-44.308594 19.875-44.308594 44.308594v423.382812c0 24.433594 19.875 44.308594 44.308594 44.308594h374.152344c24.433593 0 44.308593-19.875 44.308593-44.308594v-423.382812c0-24.433594-19.875-44.308594-44.308593-44.308594zm-388.921876 44.308594c0-8.144532 6.625-14.769532 14.769532-14.769532h374.152344c8.144531 0 14.769531 6.625 14.769531 14.769532v59.074218h-403.691407zm403.691407 423.382812c0 8.144532-6.625 14.769532-14.769531 14.769532h-374.152344c-8.144532 0-14.769532-6.625-14.769532-14.769532v-334.769531h403.691407zm0 0"/><path d="m330.332031 51.691406h-29.53125c-8.15625 0-14.769531 6.613282-14.769531 14.769532s6.613281 14.769531 14.769531 14.769531h29.53125c8.15625 0 14.769531-6.613281 14.769531-14.769531s-6.613281-14.769532-14.769531-14.769532zm0 0"/><path d="m409.117188 51.691406h-29.53125c-8.15625 0-14.769532 6.613282-14.769532 14.769532s6.613282 14.769531 14.769532 14.769531h29.53125c8.15625 0 14.765624-6.613281 14.765624-14.769531s-6.609374-14.769532-14.765624-14.769532zm0 0"/><path d="m89.117188 307.691406c0 78.722656 64.042968 142.769532 142.765624 142.769532 78.726563 0 142.769532-64.046876 142.769532-142.769532 0-3.832031-.15625-7.628906-.453125-11.382812 0-.019532-.003907-.039063-.003907-.054688-5.847656-73.394531-67.4375-131.332031-142.3125-131.332031-74.871093 0-136.460937 57.9375-142.308593 131.332031-.003907.015625-.003907.035156-.003907.054688-.296874 3.753906-.453124 7.550781-.453124 11.382812zm142.765624 113.230469c-59.898437 0-109.074218-46.753906-112.972656-105.679687 3.1875 1.3125 6.011719 3.046874 9.234375 5.027343 8.710938 5.363281 19.558594 12.039063 39.738281 12.039063 20.179688 0 31.023438-6.671875 39.738282-12.035156 7.222656-4.445313 12.4375-7.65625 24.257812-7.65625 11.820313 0 17.039063 3.210937 24.261719 7.65625 8.714844 5.359374 19.5625 12.035156 39.742187 12.035156 20.179688 0 31.027344-6.671875 39.742188-12.035156 3.222656-1.984376 6.046875-3.71875 9.230469-5.03125-3.894531 58.925781-53.070313 105.679687-112.972657 105.679687zm0-226.460937c54.648438 0 100.378907 38.914062 110.9375 90.488281-9.980468 2.367187-16.820312 6.5625-22.675781 10.164062-7.222656 4.445313-12.441406 7.65625-24.261719 7.65625-11.820312 0-17.039062-3.210937-24.261718-7.65625-8.714844-5.363281-19.558594-12.039062-39.742188-12.039062-20.179687 0-31.023437 6.675781-39.738281 12.039062-7.222656 4.445313-12.441406 7.65625-24.257813 7.65625-11.820312 0-17.039062-3.210937-24.261718-7.65625-5.855469-3.605469-12.691406-7.800781-22.671875-10.164062 10.558593-51.574219 56.289062-90.488281 110.933593-90.488281zm0 0"/></svg>